<svg width="36" height="27" viewBox="0 0 36 27" fill="none" xmlns="http://www.w3.org/2000/svg">
<path d="M18.3661 12.7913L17.811 13.6029L11.3481 4.09922H8.54437L16.8764 16.3454L17.811 17.7502L18.7456 16.3454L27.0776 4.09922H24.2908H24.2795L18.3661 12.7913Z" fill="url(#paint0_linear_529_60671)"/>
<path d="M33.345 0H32.8183H27.0804L25.6871 2.05409H31.4249L17.8082 22.0577L4.19716 2.05409H9.93497L8.53592 0H2.79811H0L16.8736 24.8002L17.8082 26.2274L18.7428 24.8002L35.622 0H33.345Z" fill="url(#paint1_linear_529_60671)"/>
<path d="M12.7334 2.05409L16.8739 8.138L16.9192 8.19957L17.8085 9.52046L18.7374 8.1492L18.7431 8.138L22.9062 2.02051L24.2826 1.90735e-06H23.7276H22.9062H21.4845L17.8085 5.39549L14.1381 1.90735e-06H13.2432H12.4728H11.34L12.7334 2.05409Z" fill="url(#paint2_linear_529_60671)"/>
<defs>
<linearGradient id="paint0_linear_529_60671" x1="8.54437" y1="4.09922" x2="27.0776" y2="4.09922" gradientUnits="userSpaceOnUse">
<stop stop-color="#6A3F3A"/>
<stop offset="0.3" stop-color="#B8877C"/>
<stop offset="0.55" stop-color="#E6C2B8"/>
<stop offset="1" stop-color="#6A3F3A"/>
</linearGradient>
<linearGradient id="paint1_linear_529_60671" x1="0" y1="0" x2="35.622" y2="0" gradientUnits="userSpaceOnUse">
<stop stop-color="#6A3F3A"/>
<stop offset="0.3" stop-color="#B8877C"/>
<stop offset="0.55" stop-color="#E6C2B8"/>
<stop offset="1" stop-color="#6A3F3A"/>
</linearGradient>
<linearGradient id="paint2_linear_529_60671" x1="11.34" y1="1.90735e-06" x2="24.2826" y2="1.90735e-06" gradientUnits="userSpaceOnUse">
<stop stop-color="#6A3F3A"/>
<stop offset="0.3" stop-color="#B8877C"/>
<stop offset="0.55" stop-color="#E6C2B8"/>
<stop offset="1" stop-color="#6A3F3A"/>
</linearGradient>
</defs>
</svg>
